# xmcd CD database file
#
# Track frame offsets:
#	150
#	17418
#	33385
#	50847
#	67157
#	83194
#	93148
#	111348
#	124612
#	140769
#	160875
#	177687
#	200628
#	219120
#	220200
#	221334
#	222461
#	223637
#	224744
#	225758
#	226753
#	227745
#	229458
#	230476
#	231601
#	232641
#	233761
#	239615
#
# Disc length: 3271 seconds
#
# Revision: 0
# Processed by: cddbd v1.5.2PL0 Copyright (c) Steve Scherf et al.
# Submitted via: CDex 1.51
#
DISCID=9f0cc51c
DTITLE=Axel Kuehn - Pop and Jazz Flute - Play Along
DYEAR=1900
DGENRE=Jazz
TTITLE0=GreenSleeves
TTITLE1=Boogaloo Catz
TTITLE2=Don't Worry, Be Happy
TTITLE3=Miss Marple's Theme
TTITLE4=Tico Tico
TTITLE5=Will And Elizabeth
TTITLE6=Ich gehör nur mir
TTITLE7=The Pinker Panther Theme
TTITLE8=Every Breath You Take
TTITLE9=On Broadway
TTITLE10=Take Five
TTITLE11=Blue Rondo a la Turk
TTITLE12=Killer Joe
TTITLE13=Uebung 1
TTITLE14=Uebung 2
TTITLE15=Uebung 3
TTITLE16=Uebung 4
TTITLE17=Uebung 5
TTITLE18=Uebung 6
TTITLE19=Uebung 7
TTITLE20=Uebung 8
TTITLE21=Uebung 9
TTITLE22=Uebung 10
TTITLE23=Uebung 11
TTITLE24=Uebung 12
TTITLE25=Uebung 13
TTITLE26=Uebung 14
TTITLE27=Uebung 15
EXTD=
EXTT0=
EXTT1=
EXTT2=
EXTT3=
EXTT4=
EXTT5=
EXTT6=
EXTT7=
EXTT8=
EXTT9=
EXTT10=
EXTT11=
EXTT12=
EXTT13=
EXTT14=
EXTT15=
EXTT16=
EXTT17=
EXTT18=
EXTT19=
EXTT20=
EXTT21=
EXTT22=
EXTT23=
EXTT24=
EXTT25=
EXTT26=
EXTT27=
PLAYORDER=
